<?xml version="1.0" encoding="UTF-8"?><svg id="Layer_1" xmlns="http://www.w3.org/2000/svg" viewBox="0 0 662.57 263.22"><defs><style>.cls-1{fill:#004893;}.cls-1,.cls-2,.cls-3{stroke-width:0px;}.cls-2{fill:#6d8ab8;}.cls-3{fill:#ba1e2d;}.cls-4{fill:#004892;stroke:#004892;stroke-miterlimit:10;stroke-width:3px;}</style></defs><rect class="cls-1" x="46.58" y="199.77" width="67.23" height="6.69" transform="translate(-13.97 6.09) rotate(-4)"/><path class="cls-3" d="M147.63,201.76l-.47-6.68-31.68,2.22h0l-1.99.14-4.03,2.69c-.69.46-.62,1.51.13,1.87l4.37,2.11,1.99-.14h0l31.67-2.22h0Z"/><path class="cls-3" d="M163,193.26c-9.82-31.39-55.57-54.07-55.57-54.07-13.68-7.53-25.6-14.79-36.01-21.74l45.58-3.19h0c1.84-.12,3.23-1.73,3.1-3.56-.13-1.83-1.73-3.22-3.55-3.1h0l-53.98,3.77c-11.61-8.24-21.04-15.98-28.72-23.12l46.76-3.27h0l1.97-.14,4-2.7c.69-.46.62-1.5-.13-1.87l-4.33-2.11-1.91.13h0l-52.8,3.69c-9.78-9.97-16.01-18.57-19.97-25.5,5.86-11.23,31.84-32.02,31.84-32.02L24.49,0C7.82,18.52.53,35.77.53,35.77c-.18.59-.3,1.22-.39,1.87v-.17.32c-.12.9-.15,1.85-.11,2.83v44.97c11.49,37.28,105.17,85.76,105.17,85.76,50.47,32.57,54.27,48.83,54.46,52.24.04.06.08.12.11.19h0s.05,0,.07,0c.04-.04.1-.07.14-.11,6.82-21.41,3.03-30.42,3.03-30.42h0Z"/><polygon class="cls-4" points="240.08 122.83 192.13 67.59 190.56 67.59 190.56 139.65 198 139.65 198 85.09 245.57 139.65 247.19 139.65 247.19 67.59 240.08 67.59 240.08 122.83"/><path class="cls-4" d="M309.09,65.77h-.02c-6.73.01-12.99,1.68-18.77,5.03-5.78,3.35-10.35,7.98-13.7,13.89-3.35,5.91-5.02,12.33-5.02,19.25,0,10.39,3.68,19.24,11.03,26.55,7.35,7.32,16.37,10.97,27.06,10.97s19.5-3.67,26.84-11.02c7.34-7.35,11.01-16.3,11.01-26.85s-3.68-19.61-11.03-26.9c-7.35-7.28-16.49-10.92-27.4-10.92ZM336.05,119.26h.01c-2.67,4.71-6.38,8.42-11.14,11.13s-9.94,4.07-15.53,4.07c-8.37,0-15.53-2.95-21.47-8.85-5.94-5.9-8.91-13.13-8.91-21.69,0-5.79,1.34-11.03,4.02-15.74,2.68-4.7,6.41-8.45,11.19-11.23,4.77-2.78,9.83-4.17,15.16-4.17s10.57,1.39,15.41,4.17c4.84,2.78,8.59,6.48,11.26,11.1,2.67,4.63,4,9.8,4,15.52s-1.33,10.98-4,15.69Z"/><path class="cls-4" d="M406.79,103.85h-.02c3.43-1.51,6.07-3.76,7.91-6.74,1.84-2.97,2.77-6.42,2.77-10.35,0-4.71-1.34-8.67-4.02-11.9-2.68-3.22-6.16-5.32-10.43-6.3-2.84-.65-8.26-.98-16.26-.98h-14.35v72.06h7.2v-33.46h4.07l25.92,33.46h8.91l-25.91-33.46c6.04-.03,10.78-.81,14.21-2.33ZM379.58,99.15h0v-24.5h12.71c4.94,0,8.47.43,10.6,1.27,2.13.85,3.84,2.26,5.15,4.24,1.31,1.98,1.96,4.17,1.96,6.59s-.65,4.73-1.94,6.74c-1.29,2.01-3.09,3.47-5.4,4.39-2.31.91-5.86,1.37-10.67,1.37l-12.41-.1Z"/><path class="cls-4" d="M508.61,112.07c-.95,6.66-3.98,12.08-9.11,16.26s-11.4,6.27-18.81,6.27c-6.11,0-11.72-1.39-16.85-4.19-5.13-2.79-9.15-6.63-12.05-11.51-2.91-4.88-4.36-10.04-4.36-15.46s1.4-10.31,4.21-15.06,6.77-8.52,11.88-11.29,10.49-4.16,16.14-4.16c4.54,0,9.2,1.02,13.99,3.06,4.78,2.04,9.18,5.04,13.2,8.99l5.58-5.29c-5.13-4.87-10.39-8.4-15.77-10.61-5.39-2.2-11.14-3.31-17.24-3.31-7.54,0-14.3,1.66-20.28,4.97-5.98,3.31-10.68,7.91-14.11,13.79s-5.14,12.23-5.14,19.06c0,9.18,2.99,17.26,8.96,24.25,7.77,9.08,18.32,13.62,31.65,13.62,10.97,0,19.73-3.27,26.28-9.82,6.55-6.55,9.85-15.39,9.92-26.53l-30.97.06.03,6.9h22.84Z"/><polygon class="cls-4" points="540.49 139.65 581.49 139.65 581.49 132.6 547.69 132.6 547.69 104.28 581.49 104.28 581.49 97.23 547.69 97.23 547.69 74.64 581.78 74.64 581.78 67.59 540.49 67.59 540.49 139.65"/><polygon class="cls-4" points="653.84 67.59 653.84 122.83 605.88 67.59 604.31 67.59 604.31 139.65 611.75 139.65 611.75 85.09 659.32 139.65 660.94 139.65 660.94 67.59 653.84 67.59"/><path class="cls-2" d="M210.42,180.83c-1.17-1-2.85-1.87-5.03-2.61,1.76-.95,3.09-2.19,4-3.72s1.36-3.22,1.36-5.09c0-1.99-.52-3.81-1.55-5.44-1.04-1.63-2.45-2.84-4.23-3.63-1.79-.79-4.34-1.18-7.67-1.18h-8.26v41.92h11.51c4.14,0,7.44-1.16,9.9-3.49s3.69-5.17,3.69-8.54c0-1.65-.33-3.19-.98-4.6-.65-1.41-1.57-2.62-2.74-3.62h0ZM193.14,163.26h4.86c2.93,0,5.07.55,6.41,1.64s2.01,2.6,2.01,4.52c0,1.43-.4,2.72-1.2,3.89-.8,1.17-1.89,2.02-3.26,2.57-1.37.54-3.51.81-6.43.81h-2.4v-13.42h.01ZM208.51,193.27c-.87,1.27-2.01,2.21-3.44,2.81-1.43.6-3.67.9-6.74.9h-5.2v-16.07h2.37c3.54,0,6.03.17,7.45.51,2.13.51,3.8,1.46,5.02,2.85s1.83,3.01,1.83,4.87c0,1.48-.43,2.86-1.3,4.13h.01Z"/><rect class="cls-2" x="280.2" y="159.16" width="4.19" height="41.92"/><path class="cls-2" d="M372.33,158.1c-3.92,0-7.56.98-10.92,2.92-3.37,1.95-6.02,4.64-7.97,8.08s-2.92,7.17-2.92,11.2c0,6.04,2.14,11.19,6.42,15.45s9.53,6.38,15.74,6.38,11.35-2.14,15.61-6.41c4.27-4.27,6.4-9.48,6.4-15.62s-2.14-11.41-6.42-15.65c-4.28-4.24-9.59-6.36-15.94-6.36h0ZM388.03,189.22c-1.55,2.74-3.71,4.9-6.48,6.47-2.77,1.58-5.78,2.37-9.03,2.37-4.87,0-9.04-1.71-12.49-5.15s-5.18-7.64-5.18-12.62c0-3.37.78-6.42,2.34-9.16s3.73-4.91,6.51-6.53c2.78-1.61,5.72-2.42,8.82-2.42s6.15.81,8.96,2.42c2.82,1.62,5,3.77,6.55,6.46s2.33,5.7,2.33,9.03-.78,6.39-2.33,9.13h0Z"/><polygon class="cls-2" points="457.3 163.26 466.65 163.26 466.65 201.08 470.92 201.08 470.92 163.26 480.27 163.26 480.27 159.16 457.3 159.16 457.3 163.26"/><polygon class="cls-2" points="544.71 201.08 568.57 201.08 568.57 196.97 548.9 196.97 548.9 180.5 568.57 180.5 568.57 176.4 548.9 176.4 548.9 163.26 568.74 163.26 568.74 159.16 544.71 159.16 544.71 201.08"/><polygon class="cls-2" points="640.87 177.97 661.01 159.16 655.38 159.16 638.62 174.89 638.62 159.16 634.34 159.16 634.34 201.08 638.62 201.08 638.62 181.55 656.99 201.08 662.57 201.08 640.87 177.97"/><path class="cls-1" d="M164.13,95.67s0,.01-.02.02c-.05-.95-.08-1.51-.08-1.51-2.06-26.16-66.13-64.85-66.13-64.85v34.66c7.45,2.95,14.65,7.05,21.39,11.69l-27.69,1.94h0l-4.81.34,4.33,2.11c.37.18.58.53.6.9h0c.03.36-.13.74-.47.97l-4,2.7,4.82-.34h0l35.49-2.49c9.85,7.8,18.35,16.32,24.71,23.32l-27.02,1.89h0l-6.13.43s-.06.03-.09.04h0l.04-.02s-.02.01-.03.02h0v.02h0s.03.01.04.02c1.52.23,2.74,1.48,2.85,3.07s-.92,3-2.38,3.44c0,0-.02.02-.03.03v.03s.02.01.03.02h.08l5.96-.42h0l21.96-1.53c-14.42,12.98-36.03,30.87-57.05,42.29,0,0-73.08,41.94-90.32,72.29-.05.15-.1.3-.14.46,0,.06-.02.11-.03.17v35.84s-.04-.02,0,0c.03-.04.08-.06.12-.09,2.89-9.61,13.94-32.23,108.55-82.91,0,0,40.64-22.48,54.39-46.03,0-.13.97-2.54,1.01-2.66l.05-35.86h0Z"/></svg>